<mxfile host="app.diagrams.net" modified="2023-10-31T08:39:47.998Z" agent="Mozilla/5.0 (Windows NT 10.0; Win64; x64) AppleWebKit/537.36 (KHTML, like Gecko) Chrome/120.0.0.0 Safari/537.36 Edg/120.0.0.0" version="22.0.8" etag="zhw9Ytre7-O9ygRp5e_v" type="github">
  <diagram name="第 1 页" id="w70VWhPXzgvYaFUdvhdi">
    <mxGraphModel>
      <root>
        <mxCell id="0" />
        <mxCell id="1" parent="0" />
      </root>
    </mxGraphModel>
  </diagram>
</mxfile>
